<svg xmlns="http://www.w3.org/2000/svg" xmlns:xlink="http://www.w3.org/1999/xlink" viewBox="0,0,256,256" width="512px" height="512px" fill-rule="nonzero"><defs><linearGradient x1="32.015" y1="6.551" x2="32.015" y2="59" gradientUnits="userSpaceOnUse" id="color-1"><stop offset="0" stop-color="#b26dff"></stop><stop offset="1" stop-color="#c71cff"></stop></linearGradient><linearGradient x1="32.016" y1="4" x2="32.016" y2="60" gradientUnits="userSpaceOnUse" id="color-2"><stop offset="0" stop-color="#6b00d7"></stop><stop offset="1" stop-color="#8700b4"></stop></linearGradient></defs><g fill="none" fill-rule="nonzero" stroke="none" stroke-width="1" stroke-linecap="butt" stroke-linejoin="miter" stroke-miterlimit="10" stroke-dasharray="" stroke-dashoffset="0" font-family="none" font-weight="none" font-size="none" text-anchor="none" style="mix-blend-mode: normal"><g transform="scale(4,4)"><path d="M50.011,56.365c0,0 -0.29,2.635 -18.011,2.635c-17.721,0 -17.98,-2.635 -17.98,-2.635c0,-2.885 0.36,-5.031 0.959,-6.709c0,0 4.492,1.794 10.367,1.206c6.442,-0.645 8.688,-11.82 8.688,-15.379c0,-4.129 -7.034,-3.483 -7.034,-3.483c0.109,-1.22 0,-2.515 0,-4h8l0.951,-3.244l-1.279,-1.709c-0.002,0.001 -0.005,0 -0.007,0.001l-2.033,-2.727c3.522,-1.297 6.034,-4.682 6.034,-8.654c0,-1.893 -0.572,-3.652 -1.551,-5.116c2.474,1.653 4.104,4.47 4.104,7.669c0,2.96 -1.395,5.594 -3.563,7.28c1.617,1.086 3.727,2.451 5.343,3.537c-0.04,0.564 -0.149,1.313 -0.437,2.152c-0.26,0.755 -0.588,1.359 -0.873,1.805l-4.342,-0.284l-0.002,0.001c1.02,18.904 12.666,10.893 12.666,27.654z" fill="url(#color-1)"></path><path d="M44.883,42.843c-2.829,-2.224 -5.75,-4.52 -6.411,-12.853l3.217,0.004h0.001c0.316,0 0.614,-0.149 0.803,-0.404c0.763,-1.026 1.509,-3.282 1.508,-4.554c0,-0.333 -0.166,-0.644 -0.442,-0.829c-0.82,-0.552 -1.83,-1.174 -2.839,-1.795c-0.568,-0.351 -1.137,-0.7 -1.67,-1.037c2.754,-2.778 3.699,-6.806 2.397,-10.607c-1.425,-4.163 -5.044,-6.755 -9.448,-6.768c-4.401,0.004 -8.017,2.597 -9.435,6.769c-1.298,3.817 -0.344,7.843 2.419,10.605c-0.536,0.338 -1.108,0.691 -1.683,1.044c-0.998,0.614 -2.03,1.25 -2.858,1.807c-0.276,0.185 -0.442,0.496 -0.442,0.829c-0.001,1.272 0.746,3.529 1.509,4.556c0.188,0.254 0.486,0.403 0.803,0.403h0.001l3.281,-0.005c-0.519,7.63 -3.37,10.091 -6.382,12.688c-1.947,1.68 -3.959,3.415 -5.138,6.533c-0.015,0.031 -0.028,0.064 -0.04,0.098c-0.688,1.975 -1.001,4.145 -1.015,7.033c0,0.034 0.001,0.068 0.005,0.103c0.229,2.314 6.79,3.537 18.976,3.537c12.179,0 18.751,-1.219 19.006,-3.525c0.004,-0.036 0.006,-0.072 0.006,-0.109c0,-8.707 -3.116,-11.155 -6.129,-13.523zM22.05,25.561c0.7,-0.454 1.5,-0.947 2.3,-1.439c1.014,-0.624 2.025,-1.247 2.843,-1.796c0.267,-0.179 0.432,-0.476 0.441,-0.798c0.011,-0.321 -0.134,-0.628 -0.389,-0.824c-2.862,-2.204 -3.956,-5.851 -2.787,-9.291c0.889,-2.615 3.337,-5.41 7.539,-5.413c4.21,0.012 6.664,2.805 7.558,5.415c1.172,3.424 0.086,7.073 -2.766,9.296c-0.253,0.197 -0.396,0.504 -0.384,0.824c0.011,0.32 0.176,0.616 0.441,0.795c0.816,0.548 1.819,1.166 2.823,1.784c0.792,0.488 1.584,0.976 2.28,1.429c-0.126,0.747 -0.472,1.784 -0.818,2.45l-3.344,-0.003l-0.188,0.01h-11.599c-0.014,0 -0.025,0.007 -0.038,0.008l-3.094,0.004c-0.347,-0.666 -0.692,-1.703 -0.818,-2.451zM32,58c-13.475,0 -16.428,-1.539 -16.978,-1.953c0.032,-2.459 0.305,-4.319 0.874,-5.985c0.008,-0.019 0.016,-0.037 0.022,-0.056c0.995,-2.687 2.746,-4.196 4.599,-5.795c3.063,-2.642 6.51,-5.64 7.07,-14.211h8.888c0.712,9.311 4.133,12.027 7.171,14.415c2.839,2.23 5.295,4.162 5.363,11.627c-0.551,0.414 -3.514,1.958 -17.009,1.958z" fill="url(#color-2)"></path></g></g></svg>